<svg xmlns="http://www.w3.org/2000/svg" width="450" height="600" viewBox="0 0 450 600" role="img" aria-label="Sin portada">
  <defs>
    <linearGradient id="bg" x1="0" y1="0" x2="1" y2="1">
      <stop offset="0%" stop-color="#0a2a45"/>
      <stop offset="55%" stop-color="#041d33"/>
      <stop offset="100%" stop-color="#02101c"/>
    </linearGradient>
    <pattern id="grain" width="80" height="80" patternUnits="userSpaceOnUse">
      <circle cx="4" cy="12" r="0.8" fill="#fdfbf2" opacity="0.04"/>
      <circle cx="28" cy="40" r="0.6" fill="#fdfbf2" opacity="0.03"/>
      <circle cx="56" cy="18" r="0.7" fill="#fdfbf2" opacity="0.035"/>
      <circle cx="70" cy="60" r="0.5" fill="#fdfbf2" opacity="0.03"/>
      <circle cx="16" cy="68" r="0.7" fill="#fdfbf2" opacity="0.025"/>
    </pattern>
  </defs>
  <rect width="450" height="600" fill="url(#bg)"/>
  <rect width="450" height="600" fill="url(#grain)"/>
  <g transform="translate(225 300)" fill="none" stroke="#fdfbf2" stroke-width="8" stroke-linecap="round" stroke-linejoin="round" opacity="0.28">
    <path d="M-70 -55 C-70 -55 -20 -75 0 -55 C20 -75 70 -55 70 -55 L70 55 C70 55 20 35 0 55 C-20 35 -70 55 -70 55 Z"/>
    <path d="M0 -55 V55"/>
  </g>
</svg>
